<?xml version="1.0" encoding="UTF-8" standalone="no"?>
<!-- Created with Inkscape (http://www.inkscape.org/) -->

<svg
   width="15.435472mm"
   height="8.40627mm"
   viewBox="0 0 15.435472 8.40627"
   version="1.1"
   id="svg1"
   inkscape:version="1.3 (0e150ed6c4, 2023-07-21)"
   xmlns:inkscape="http://www.inkscape.org/namespaces/inkscape"
   xmlns:sodipodi="http://sodipodi.sourceforge.net/DTD/sodipodi-0.dtd"
   xmlns="http://www.w3.org/2000/svg"
   xmlns:svg="http://www.w3.org/2000/svg">
  <sodipodi:namedview
     id="namedview1"
     pagecolor="#ffffff"
     bordercolor="#666666"
     borderopacity="1.0"
     inkscape:showpageshadow="2"
     inkscape:pageopacity="0.0"
     inkscape:pagecheckerboard="0"
     inkscape:deskcolor="#d1d1d1"
     inkscape:document-units="mm"
     inkscape:zoom="7.0131524"
     inkscape:cx="35.504718"
     inkscape:cy="-3.8499092"
     inkscape:window-width="1280"
     inkscape:window-height="971"
     inkscape:window-x="0"
     inkscape:window-y="0"
     inkscape:window-maximized="1"
     inkscape:current-layer="layer1" />
  <defs
     id="defs1">
    <inkscape:path-effect
       effect="offset"
       id="path-effect5"
       is_visible="true"
       lpeversion="1.2"
       linejoin_type="miter"
       unit="mm"
       offset="0.3"
       miter_limit="4"
       attempt_force_join="false"
       update_on_knot_move="true" />
    <inkscape:path-effect
       effect="offset"
       id="path-effect4"
       is_visible="true"
       lpeversion="1.2"
       linejoin_type="miter"
       unit="mm"
       offset="0"
       miter_limit="4"
       attempt_force_join="false"
       update_on_knot_move="true" />
  </defs>
  <g
     inkscape:label="Layer 1"
     inkscape:groupmode="layer"
     id="layer1"
     transform="translate(-43.011304,-154.06809)">
    <path
       id="path4"
       style="font-weight:bold;font-size:10.5833px;line-height:1.25;font-family:Andika;-inkscape-font-specification:'Andika, Bold';text-align:center;text-anchor:middle;fill:#f9f9f9;stroke-width:0.264583"
       d="m 55.902344,144.29687 c -0.515517,0 -1.008166,0.0932 -1.476563,0.2754 -0.252506,0.097 -0.488322,0.21999 -0.708984,0.36914 0.01013,-0.0145 0.01901,-0.0264 0.0293,-0.041 l 0.332031,-0.47266 H 51.65625 l -1.464844,2.74024 -1.482422,-2.74024 H 48.492187 46.8125 43.275391 l 0.06445,0.35547 c 0.03362,0.18341 0.05376,0.46591 0.06055,0.85938 0.0069,0.3981 0.01172,0.85143 0.01172,1.35937 v 3.02344 c 0,0.50794 -0.0049,0.95656 -0.01172,1.34766 -0.0068,0.38299 -0.0268,0.65966 -0.06055,0.84375 l -0.06445,0.35547 h 2.351562 l -0.07031,-0.35938 c -0.03283,-0.16413 -0.05378,-0.42127 -0.06055,-0.7832 -0.0068,-0.36624 -0.0098,-0.78781 -0.0098,-1.26563 v -0.87304 h 2.867188 v -1.54493 l 0.767578,1.31446 v 0.96484 c 0,0.50888 -0.0029,0.95721 -0.0098,1.34766 -0.0068,0.38299 -0.0268,0.65966 -0.06055,0.84375 l -0.06445,0.35547 h 2.345703 l -0.06445,-0.35547 c -0.03375,-0.18408 -0.05377,-0.46081 -0.06055,-0.84375 -0.0069,-0.39115 -0.01172,-0.83972 -0.01172,-1.34766 v -0.95898 l 0.90625,-1.52539 c -0.05973,0.332 -0.0918,0.68582 -0.0918,1.0625 0,0.81142 0.146054,1.52926 0.445312,2.14648 0.301102,0.62102 0.730664,1.09822 1.298828,1.44141 0.568817,0.34358 1.234305,0.51171 1.994141,0.51171 0.321175,0 0.652585,-0.0409 0.99414,-0.11718 0.344139,-0.0761 0.676307,-0.18124 0.994141,-0.31641 0.320925,-0.13648 0.599295,-0.2978 0.833984,-0.48633 l 0.140625,-0.11328 -0.398437,-2.11328 -0.402344,0.41406 c -0.253881,0.26008 -0.560258,0.47048 -0.921875,0.63086 -0.36172,0.15727 -0.716583,0.23242 -1.060547,0.23242 -0.58042,0 -1.027658,-0.20603 -1.341797,-0.59375 -0.32353,-0.40294 -0.501953,-0.98241 -0.501953,-1.76562 0,-0.55401 0.09034,-0.99401 0.253907,-1.33008 0.170316,-0.34368 0.394773,-0.59169 0.667968,-0.75391 0.284314,-0.16706 0.607996,-0.25195 0.97461,-0.25195 0.30207,0 0.598007,0.0505 0.890625,0.1543 0.285718,0.0973 0.580783,0.26433 0.886718,0.50586 l 0.347657,0.27539 0.548828,-1.8711 -0.171875,-0.125 c -0.395805,-0.28585 -0.803226,-0.49172 -1.220703,-0.60937 -0.406698,-0.11567 -0.86221,-0.17188 -1.359375,-0.17188 z m -10.416016,1.91993 h 1.962891 c 0.140559,0.22994 0.280114,0.46115 0.421875,0.70312 l 0.355468,0.60742 h -2.740234 z"
       transform="translate(-0.26408714,9.7712241)" />
    <path
       id="text1"
       style="font-weight:bold;font-size:10.5833px;line-height:1.25;font-family:Andika;-inkscape-font-specification:'Andika, Bold';text-align:center;text-anchor:middle;fill:#d45500;stroke-width:0.264583"
       d="m 44.920815,157.59943 h 2.868032 v 1.16271 h -2.868032 v 1.17306 q 0,0.7183 0.01033,1.27124 0.01033,0.55293 0.06718,0.83714 h -1.627802 q 0.05684,-0.31005 0.06718,-0.894 0.01033,-0.58911 0.01033,-1.35391 v -3.02307 q 0,-0.7648 -0.01033,-1.36425 -0.01034,-0.59945 -0.06718,-0.90949 h 4.857569 v 1.18855 h -3.307281 z m 4.47032,1.55029 -1.52445,-2.60966 q -0.299722,-0.5116 -0.594277,-0.98702 -0.289387,-0.47542 -0.723467,-1.05419 h 1.715652 l 2.196241,4.05658 z m 1.007688,0 -0.997352,-0.59428 2.170403,-4.05658 h 1.663976 q -0.30489,0.43408 -0.521931,0.76997 -0.211872,0.33589 -0.392739,0.63561 -0.180867,0.29973 -0.377237,0.63563 z m -1.240231,-0.69764 h 1.472774 v 1.34359 q 0,0.7648 0.01033,1.35391 0.01033,0.58395 0.06718,0.894 h -1.627802 q 0.05684,-0.31005 0.06718,-0.894 0.01034,-0.58911 0.01034,-1.35391 z m 8.702132,1.49862 0.258381,1.36942 q -0.315225,0.25322 -0.764808,0.44442 -0.449584,0.1912 -0.940508,0.29972 -0.485757,0.10852 -0.930173,0.10852 -1.069699,0 -1.839675,-0.46509 -0.769977,-0.46508 -1.183387,-1.31774 -0.41341,-0.85266 -0.41341,-2.01537 0,-0.99736 0.284219,-1.74666 0.289387,-0.75448 0.790647,-1.25574 0.50126,-0.50126 1.147213,-0.7493 0.651121,-0.25322 1.369422,-0.25322 0.713132,0 1.276403,0.1602 0.568439,0.1602 1.126543,0.56327 l -0.361734,1.24023 q -0.490924,-0.38757 -0.976681,-0.55293 -0.48059,-0.17053 -0.987017,-0.17053 -0.625283,0 -1.126543,0.29455 -0.496092,0.29455 -0.785479,0.8785 -0.284219,0.58394 -0.284219,1.46243 0,1.2454 0.568438,1.95337 0.573607,0.70796 1.576127,0.70796 0.583941,0 1.178219,-0.25838 0.594277,-0.26355 1.018022,-0.69763 z" />
  </g>
</svg>
